<svg xmlns="http://www.w3.org/2000/svg" id="plura-anim-l" viewBox="0 0 439.57 73.85" overflow="visible" fill="none" stroke="black" stroke-linecap="round" stroke-linejoin="round" stroke-width="1.5"><g id="plura-anim-l-a"><path id="plura-anim-l-a-leg-br" d="M420.92 55.21c10.1 0 18.29 8.19 18.29 18.29"/><path id="plura-anim-l-a-leg-bl" d="M384.35 55.21c-10.1 0-18.29 8.19-18.29 18.29"/><path id="plura-anim-l-a-line-left" d="M366.07 18.64V36.93"/><path id="plura-anim-l-a-arc-bl" d="M366.07 36.93c0 10.1 8.19 18.29 18.29 18.29"/><path id="plura-anim-l-a-line-bottom" d="M384.35 55.21H420.93"/><path id="plura-anim-l-a-arc-br" d="M420.93 55.21c10.1 0 18.29-8.19 18.29-18.29"/><path id="plura-anim-l-a-line-right" d="M439.21 36.93V18.64"/><path id="plura-anim-l-a-arc-tr" d="M439.21 18.64c0-10.1-8.19-18.29-18.29-18.29"/><path id="plura-anim-l-a-line-top" d="M420.93.35h-36.58"/><path id="plura-anim-l-a-arc-tl" d="M384.35.35c-10.1 0-18.29 8.19-18.29 18.29"/></g><g id="plura-anim-l-r"><path id="plura-anim-l-r-leg-br" d="M329.49 55.21c10.1 0 18.29 8.19 18.29 18.29"/><path id="plura-anim-l-r-leg-bl" d="M274.64 36.93V73.5"/><path id="plura-anim-l-r-line-left" d="M274.64 18.64V36.93"/><path id="plura-anim-l-r-arc-bl" d="M274.64 36.93c0 10.1 8.19 18.29 18.29 18.29"/><path id="plura-anim-l-r-line-bottom" d="M292.93 55.21H329.5"/><path id="plura-anim-l-r-arc-br" d="M329.5 55.21c10.1 0 18.29-8.19 18.29-18.29"/><path id="plura-anim-l-r-line-right" d="M347.78 36.93V18.64"/><path id="plura-anim-l-r-arc-tr" d="M347.78 18.64c0-10.1-8.19-18.29-18.29-18.29"/><path id="plura-anim-l-r-line-top" d="M329.5.35h-36.57"/><path id="plura-anim-l-r-arc-tl" d="M292.93.35c-10.1 0-18.29 8.19-18.29 18.29"/></g><g id="plura-anim-l-u"><path id="plura-anim-l-u-line-left" d="M183.21 18.64V36.93"/><path id="plura-anim-l-u-arc-bl" d="M183.21 36.93c0 10.1 8.19 18.29 18.29 18.29"/><path id="plura-anim-l-u-line-bottom" d="M201.5 55.21H238.07"/><path id="plura-anim-l-u-arc-br" d="M238.07 55.21c10.1 0 18.29-8.19 18.29-18.29"/><path id="plura-anim-l-u-line-right" d="M256.35 36.93V18.64"/><path id="plura-anim-l-u-arc-tr" d="M256.35 18.64c0-10.1-8.19-18.29-18.29-18.29"/><path id="plura-anim-l-u-line-top-x" d="M238.07.35H201.5"/><path id="plura-anim-l-u-arc-tl" d="M201.5.35c-10.1 0-18.29 8.19-18.29 18.29"/></g><g id="plura-anim-l-l"><path id="plura-anim-l-l-line-left" d="M91.78 18.64V36.93"/><path id="plura-anim-l-l-arc-bl" d="M91.78 36.93c0 10.1 8.19 18.29 18.29 18.29"/><path id="plura-anim-l-l-line-bottom" d="M110.07 55.21H146.64"/><path id="plura-anim-l-l-arc-br" d="M146.64 55.21c10.1 0 18.29-8.19 18.29-18.29"/><path id="plura-anim-l-l-line-right-x" d="M164.93 36.93V18.64"/><path id="plura-anim-l-l-arc-tr-x" d="M164.93 18.64c0-10.1-8.19-18.29-18.29-18.29"/><path id="plura-anim-l-l-line-top-x" d="M146.64.35h-36.57"/><path id="plura-anim-l-l-arc-tl" d="M110.07.35c-10.1 0-18.29 8.19-18.29 18.29"/></g><g id="plura-anim-l-p"><path id="plura-anim-l-p-leg-bl" d="M.35 36.93V73.5"/><path id="plura-anim-l-p-line-left" d="M.35 18.64V36.93"/><path id="plura-anim-l-p-arc-bl" d="M.35 36.93c0 10.1 8.19 18.29 18.29 18.29"/><path id="plura-anim-l-p-line-bottom" d="M18.64 55.21H55.21"/><path id="plura-anim-l-p-arc-br" d="M55.21 55.21c10.1 0 18.29-8.19 18.29-18.29"/><path id="plura-anim-l-p-line-right" d="M73.5 36.93V18.64"/><path id="plura-anim-l-p-arc-tr" d="M73.5 18.64C73.5 8.54 65.31.35 55.21.35"/><path id="plura-anim-l-p-line-top" d="M55.21.35H18.64"/><path id="plura-anim-l-p-arc-tl" d="M18.64.35C8.54.35.35 8.54.35 18.64"/></g></svg>